<svg width="47" height="48" viewBox="0 0 47 48" fill="none" xmlns="http://www.w3.org/2000/svg">
<rect width="46.0588" height="48" fill="white"/>
<path d="M44 24C44 35.598 34.598 45 23 45C11.402 45 2 35.598 2 24C2 12.402 11.402 3 23 3C34.598 3 44 12.402 44 24Z" fill="#4E91FD" fill-opacity="0.12"/>
<path d="M37.0898 39.5728C33.3634 42.9453 28.4225 44.9996 23.0006 44.9996C17.5807 44.9996 12.6385 42.9453 8.91211 39.5749C11.2194 34.0707 16.6586 30.2061 23.0006 30.2061C29.3405 30.2061 34.7804 34.0707 37.0898 39.5728Z" fill="#5998FF"/>
<path d="M31.5511 21.598C31.5511 26.338 27.7087 30.1805 22.9689 30.1805C18.2291 30.1805 14.3867 26.338 14.3867 21.598C14.3867 16.8587 16.4596 10.4316 21.1994 10.4316C25.9392 10.4316 31.5511 16.8587 31.5511 21.598Z" fill="#5998FF"/>
<path d="M24.8262 25.2968C24.8265 25.1018 24.6687 24.9429 24.4736 24.9418C24.4669 24.9418 23.8341 24.9347 23.215 24.6251C23.1156 24.5755 22.998 24.5755 22.8986 24.6251C22.2795 24.9348 21.6463 24.9418 21.641 24.9418C21.4457 24.9418 21.2871 25.1004 21.2871 25.2957C21.2871 25.4911 21.4457 25.6496 21.641 25.6496C21.6711 25.6496 22.3397 25.6457 23.0568 25.3322C23.7735 25.6457 24.4425 25.6496 24.4725 25.6496C24.6676 25.6496 24.8255 25.4918 24.8262 25.2968Z" fill="#2164D1"/>
<path d="M22.7035 26.0039C22.5082 26.0039 22.3496 26.1625 22.3496 26.3578C22.3496 26.5532 22.5082 26.7117 22.7035 26.7117H23.4113C23.6071 26.7117 23.7652 26.5532 23.7652 26.3578C23.7652 26.1625 23.6071 26.0039 23.4113 26.0039H22.7035Z" fill="#2164D1"/>
<path d="M29.7608 11.1134C30.4628 11.0336 32.9999 11.7941 33.3042 14.4212C33.609 17.0485 33.4631 19.4689 33.4631 19.4689C33.4631 19.4689 31.977 19.8363 31.7898 21.3273C31.603 22.8185 31.7362 22.8185 31.7362 22.8185L31.1981 22.7003L30.8146 20.1437C28.5911 18.7802 30.8313 16.7602 28.6073 16.2871C22.6009 20.4772 17.3015 19.7602 14.9116 17.7889C14.9116 17.7889 15.4696 19.8506 15.0393 20.5855C14.6092 21.3208 14.866 22.4791 14.866 22.4791L14.3073 22.4526C14.3073 22.4526 14.4084 19.4166 13.1683 19.4299C8.45653 11.8154 23.3738 2.35644 29.7608 11.1134Z" fill="#2164D1"/>
<path d="M23.6126 32.1855L24.1939 30.25H21.7441L22.3255 32.1855H23.6126Z" fill="#2164D1"/>
<path d="M23.5759 32.751H22.3619L21.4709 41.4267C21.4507 41.6215 21.4813 41.8219 21.5546 41.9742L22.6621 44.3027C22.7376 44.4609 22.8503 44.5524 22.9691 44.5521C23.0881 44.5518 23.2005 44.4596 23.2757 44.301L24.3833 41.9699C24.4565 41.8193 24.4872 41.6203 24.467 41.4269L23.5759 32.751Z" fill="#2164D1"/>
</svg>
